<mxfile host="app.diagrams.net" modified="2021-10-26T08:41:26.757Z" agent="5.0 (X11)" etag="h4Zz1kpWxrpXyOKDOkHb" version="15.5.9" type="github">
  <diagram name="Page-1" id="03018318-947c-dd8e-b7a3-06fadd420f32">
    <mxGraphModel dx="1150" dy="726" grid="1" gridSize="10" guides="1" tooltips="1" connect="1" arrows="1" fold="1" page="1" pageScale="1" pageWidth="1100" pageHeight="850" background="#ffffff" math="0" shadow="0">
      <root>
        <mxCell id="0" />
        <mxCell id="1" parent="0" />
        <mxCell id="ODlGdyG89-AIhttS8kC1-5" value="&lt;font style=&quot;font-size: 18px&quot;&gt;&lt;b&gt;GPU&amp;amp;Register&lt;/b&gt;&lt;/font&gt;" style="rounded=1;whiteSpace=wrap;html=1;fillColor=#b1ddf0;strokeColor=#10739e;direction=west;strokeWidth=7;" parent="1" vertex="1">
          <mxGeometry x="240" y="800" width="640" height="40" as="geometry" />
        </mxCell>
        <mxCell id="ODlGdyG89-AIhttS8kC1-6" value="&lt;b&gt;CPU&amp;amp;Register&lt;/b&gt;" style="rounded=1;whiteSpace=wrap;html=1;fontSize=18;strokeWidth=6;perimeterSpacing=1;fillColor=#f8cecc;strokeColor=#b85450;" parent="1" vertex="1">
          <mxGeometry x="240" y="760" width="640" height="40" as="geometry" />
        </mxCell>
        <mxCell id="ODlGdyG89-AIhttS8kC1-8" value="&lt;b&gt;Linux Kernel&lt;/b&gt;" style="rounded=1;whiteSpace=wrap;html=1;fontSize=18;strokeWidth=6;fillColor=#e1d5e7;strokeColor=#9673a6;" parent="1" vertex="1">
          <mxGeometry x="240" y="680" width="640" height="60" as="geometry" />
        </mxCell>
        <mxCell id="ODlGdyG89-AIhttS8kC1-9" value="DRM" style="rounded=1;whiteSpace=wrap;html=1;fontSize=18;strokeWidth=4;perimeterSpacing=0;fillColor=#d5e8d4;strokeColor=#82b366;" parent="1" vertex="1">
          <mxGeometry x="290" y="690" width="90" height="30" as="geometry" />
        </mxCell>
        <mxCell id="ODlGdyG89-AIhttS8kC1-12" value="" style="shape=doubleArrow;direction=south;whiteSpace=wrap;html=1;fontSize=18;strokeWidth=0;fillColor=#1ba1e2;fontColor=#ffffff;strokeColor=#006EAF;" parent="1" vertex="1">
          <mxGeometry x="320" y="720" width="30" height="80" as="geometry" />
        </mxCell>
        <mxCell id="ODlGdyG89-AIhttS8kC1-13" value="LibDRM" style="rounded=1;whiteSpace=wrap;html=1;fontSize=18;strokeWidth=4;fillColor=#fff2cc;strokeColor=#d6b656;" parent="1" vertex="1">
          <mxGeometry x="240" y="610" width="190" height="40" as="geometry" />
        </mxCell>
        <mxCell id="ODlGdyG89-AIhttS8kC1-14" value="" style="shape=doubleArrow;direction=south;whiteSpace=wrap;html=1;fontSize=18;strokeWidth=0;fillColor=#1ba1e2;fontColor=#ffffff;strokeColor=#006EAF;arrowWidth=0.26666666666666666;arrowSize=0.2571428571428571;" parent="1" vertex="1">
          <mxGeometry x="320" y="650" width="30" height="40" as="geometry" />
        </mxCell>
        <mxCell id="ODlGdyG89-AIhttS8kC1-17" value="&lt;b&gt;Display&lt;br&gt; Server&lt;/b&gt;" style="rounded=1;whiteSpace=wrap;html=1;fontSize=18;strokeWidth=4;fillColor=#60a917;fontColor=#ffffff;strokeColor=#2D7600;" parent="1" vertex="1">
          <mxGeometry x="240" y="490" width="420" height="80" as="geometry" />
        </mxCell>
        <mxCell id="ODlGdyG89-AIhttS8kC1-16" value="X-Server(X.Org)" style="rounded=1;whiteSpace=wrap;html=1;fontSize=18;strokeWidth=4;fillColor=#e3c800;fontColor=#000000;strokeColor=#B09500;" parent="1" vertex="1">
          <mxGeometry x="500" y="500" width="150" height="60" as="geometry" />
        </mxCell>
        <mxCell id="ODlGdyG89-AIhttS8kC1-20" value="Wayland&lt;br&gt;compositor" style="rounded=1;whiteSpace=wrap;html=1;fontSize=18;strokeWidth=4;fillColor=#e3c800;fontColor=#000000;strokeColor=#B09500;" parent="1" vertex="1">
          <mxGeometry x="250" y="500" width="140" height="60" as="geometry" />
        </mxCell>
        <mxCell id="ODlGdyG89-AIhttS8kC1-21" value="" style="shape=doubleArrow;direction=south;whiteSpace=wrap;html=1;fontSize=18;strokeWidth=0;fillColor=#1ba1e2;fontColor=#ffffff;strokeColor=#006EAF;arrowWidth=0.26666666666666666;arrowSize=0.2571428571428571;" parent="1" vertex="1">
          <mxGeometry x="390" y="570" width="30" height="40" as="geometry" />
        </mxCell>
        <mxCell id="ODlGdyG89-AIhttS8kC1-25" value="&lt;b&gt;Windows manager&lt;/b&gt;&lt;br&gt;&lt;div&gt;&lt;font style=&quot;font-size: 14px&quot;&gt;Kwin&lt;/font&gt;&lt;br&gt;&lt;/div&gt;&lt;div&gt;&lt;font style=&quot;font-size: 14px&quot;&gt;Compiz&lt;/font&gt;&lt;br&gt;&lt;/div&gt;&lt;div&gt;&lt;font style=&quot;font-size: 14px&quot;&gt;OpenBox&lt;/font&gt;&lt;br&gt;&lt;/div&gt;&lt;div&gt;&lt;font style=&quot;font-size: 14px&quot;&gt;Marco&lt;br&gt;&lt;/font&gt;&lt;/div&gt;&lt;div&gt;&lt;font style=&quot;font-size: 14px&quot;&gt;Mutter&lt;/font&gt;&lt;br&gt;&lt;font style=&quot;font-size: 14px&quot;&gt;Metacity&lt;/font&gt;&lt;/div&gt;" style="rounded=1;whiteSpace=wrap;html=1;fontSize=18;strokeWidth=4;fillColor=#e6d0de;gradientColor=#d5739d;strokeColor=#996185;" parent="1" vertex="1">
          <mxGeometry x="720" y="460" width="160" height="170" as="geometry" />
        </mxCell>
        <mxCell id="ODlGdyG89-AIhttS8kC1-27" value="" style="shape=doubleArrow;direction=west;whiteSpace=wrap;html=1;fontSize=18;strokeWidth=0;fillColor=#1ba1e2;fontColor=#ffffff;strokeColor=#006EAF;arrowWidth=0.26666666666666666;arrowSize=0.2571428571428571;" parent="1" vertex="1">
          <mxGeometry x="650" y="510" width="70" height="30" as="geometry" />
        </mxCell>
        <mxCell id="ODlGdyG89-AIhttS8kC1-28" value="" style="rounded=1;whiteSpace=wrap;html=1;fontSize=14;strokeWidth=4;fillColor=#fad7ac;strokeColor=#b46504;align=center;" parent="1" vertex="1">
          <mxGeometry x="240" y="140" width="640" height="290" as="geometry" />
        </mxCell>
        <mxCell id="ODlGdyG89-AIhttS8kC1-29" value="libwayland-client" style="rounded=1;whiteSpace=wrap;html=1;fontSize=14;strokeWidth=4;fillColor=#99FF99;" parent="1" vertex="1">
          <mxGeometry x="250" y="380" width="120" height="30" as="geometry" />
        </mxCell>
        <mxCell id="ODlGdyG89-AIhttS8kC1-30" value="libX/libXCB" style="rounded=1;whiteSpace=wrap;html=1;fontSize=14;strokeWidth=4;fillColor=#99FF99;" parent="1" vertex="1">
          <mxGeometry x="675" y="380" width="120" height="30" as="geometry" />
        </mxCell>
        <mxCell id="ODlGdyG89-AIhttS8kC1-34" value="" style="shape=doubleArrow;direction=south;whiteSpace=wrap;html=1;fontSize=18;strokeWidth=0;fillColor=#1ba1e2;fontColor=#ffffff;strokeColor=#006EAF;arrowWidth=0.26666666666666666;arrowSize=0.2571428571428571;" parent="1" vertex="1">
          <mxGeometry x="280" y="410" width="30" height="90" as="geometry" />
        </mxCell>
        <mxCell id="ODlGdyG89-AIhttS8kC1-37" value="" style="shape=flexArrow;endArrow=classic;startArrow=classic;html=1;rounded=0;fontSize=18;entryX=0.5;entryY=1;entryDx=0;entryDy=0;startWidth=10;startSize=10;endWidth=10;endSize=7;fillColor=#1ba1e2;strokeColor=#006EAF;" parent="1" target="ODlGdyG89-AIhttS8kC1-30" edge="1">
          <mxGeometry width="100" height="100" relative="1" as="geometry">
            <mxPoint x="590" y="500" as="sourcePoint" />
            <mxPoint x="690" y="405" as="targetPoint" />
            <Array as="points">
              <mxPoint x="590" y="450" />
              <mxPoint x="735" y="450" />
            </Array>
          </mxGeometry>
        </mxCell>
        <mxCell id="ODlGdyG89-AIhttS8kC1-39" value="&lt;font style=&quot;font-size: 12px&quot;&gt;Wayland 1.5&lt;/font&gt;" style="text;html=1;resizable=0;autosize=1;align=center;verticalAlign=middle;points=[];fillColor=none;strokeColor=none;rounded=0;fontSize=18;" parent="1" vertex="1">
          <mxGeometry x="310" y="440" width="80" height="30" as="geometry" />
        </mxCell>
        <mxCell id="ODlGdyG89-AIhttS8kC1-41" value="X11" style="text;html=1;resizable=0;autosize=1;align=center;verticalAlign=middle;points=[];fillColor=none;strokeColor=none;rounded=0;fontSize=12;" parent="1" vertex="1">
          <mxGeometry x="620" y="460" width="40" height="20" as="geometry" />
        </mxCell>
        <mxCell id="ODlGdyG89-AIhttS8kC1-68" value="menu,notify" style="rounded=1;whiteSpace=wrap;html=1;fontSize=12;strokeWidth=4;fillColor=#cdeb8b;align=center;strokeColor=#36393d;" parent="1" vertex="1">
          <mxGeometry x="610" y="310" width="80" height="60" as="geometry" />
        </mxCell>
        <mxCell id="ODlGdyG89-AIhttS8kC1-72" value="&lt;div&gt;gftk-theme&lt;/div&gt;&lt;div&gt;icon-theme&lt;/div&gt;&lt;div&gt;grub-theme&lt;br&gt;&lt;/div&gt;" style="rounded=1;whiteSpace=wrap;html=1;fontSize=12;strokeWidth=4;fillColor=#ffff88;align=center;strokeColor=#36393d;" parent="1" vertex="1">
          <mxGeometry x="690" y="310" width="90" height="60" as="geometry" />
        </mxCell>
        <mxCell id="ODlGdyG89-AIhttS8kC1-79" value="&lt;b&gt;&lt;font style=&quot;font-size: 24px&quot;&gt;Desktop Environment&lt;/font&gt;&lt;/b&gt;" style="text;html=1;resizable=0;autosize=1;align=center;verticalAlign=middle;points=[];fillColor=none;strokeColor=none;rounded=0;fontSize=12;" parent="1" vertex="1">
          <mxGeometry x="390" y="385" width="260" height="20" as="geometry" />
        </mxCell>
        <mxCell id="ODlGdyG89-AIhttS8kC1-80" value="&lt;font style=&quot;font-size: 14px&quot;&gt;desktop,launcher,control-centrr,dock&lt;/font&gt;" style="rounded=1;whiteSpace=wrap;html=1;fontSize=24;strokeWidth=4;fillColor=#f8cecc;align=center;gradientColor=#ea6b66;strokeColor=#b85450;" parent="1" vertex="1">
          <mxGeometry x="250" y="310" width="360" height="60" as="geometry" />
        </mxCell>
        <mxCell id="ODlGdyG89-AIhttS8kC1-81" value="" style="rounded=1;whiteSpace=wrap;html=1;fontSize=24;strokeWidth=4;fillColor=#ffcccc;align=center;strokeColor=#36393d;" parent="1" vertex="1">
          <mxGeometry x="250" y="152" width="380" height="150" as="geometry" />
        </mxCell>
        <mxCell id="ODlGdyG89-AIhttS8kC1-71" value="&lt;font style=&quot;font-size: 12px&quot;&gt;&lt;b&gt;&lt;font style=&quot;font-size: 12px&quot;&gt;System &lt;font style=&quot;font-size: 12px&quot;&gt;tray&lt;/font&gt;&lt;/font&gt;&lt;/b&gt;&lt;/font&gt;" style="rounded=1;whiteSpace=wrap;html=1;fontSize=12;strokeWidth=4;fillColor=#f0a30a;align=center;strokeColor=#BD7000;fontColor=#000000;" parent="1" vertex="1">
          <mxGeometry x="410" y="170" width="70" height="50" as="geometry" />
        </mxCell>
        <mxCell id="ODlGdyG89-AIhttS8kC1-83" value="&lt;font style=&quot;font-size: 22px&quot;&gt;Application&lt;/font&gt;" style="text;html=1;resizable=0;autosize=1;align=center;verticalAlign=middle;points=[];fillColor=none;strokeColor=none;rounded=0;fontSize=24;rotation=0;" parent="1" vertex="1">
          <mxGeometry x="380" y="266" width="120" height="40" as="geometry" />
        </mxCell>
        <mxCell id="nWGRgr_J0W2QvZcZm6A_-1" value="&lt;div&gt;Wallpaper&lt;/div&gt;&lt;div&gt;login paper&lt;/div&gt;&lt;div&gt;lock paper&lt;br&gt;&lt;/div&gt;" style="rounded=1;whiteSpace=wrap;html=1;fontSize=12;strokeWidth=4;fillColor=#cdeb8b;align=center;strokeColor=#36393d;" vertex="1" parent="1">
          <mxGeometry x="780" y="310" width="90" height="60" as="geometry" />
        </mxCell>
        <mxCell id="nWGRgr_J0W2QvZcZm6A_-3" value="" style="rounded=1;whiteSpace=wrap;html=1;fillColor=#76608a;fontColor=#ffffff;strokeColor=#432D57;" vertex="1" parent="1">
          <mxGeometry x="633" y="150" width="240" height="150" as="geometry" />
        </mxCell>
        <mxCell id="ODlGdyG89-AIhttS8kC1-45" value="File manager" style="rounded=1;whiteSpace=wrap;html=1;fontSize=12;strokeWidth=4;fillColor=#b1ddf0;align=center;strokeColor=#10739e;" parent="1" vertex="1">
          <mxGeometry x="640" y="170" width="70" height="40" as="geometry" />
        </mxCell>
        <mxCell id="ODlGdyG89-AIhttS8kC1-43" value="Terminal" style="rounded=1;whiteSpace=wrap;html=1;fontSize=12;strokeWidth=4;fillColor=#b1ddf0;align=center;strokeColor=#10739e;" parent="1" vertex="1">
          <mxGeometry x="640" y="250" width="70" height="40" as="geometry" />
        </mxCell>
        <mxCell id="ODlGdyG89-AIhttS8kC1-64" value="Text editor" style="rounded=1;whiteSpace=wrap;html=1;fontSize=12;strokeWidth=4;fillColor=#b1ddf0;align=center;strokeColor=#10739e;" parent="1" vertex="1">
          <mxGeometry x="795" y="170" width="70" height="40" as="geometry" />
        </mxCell>
        <mxCell id="nWGRgr_J0W2QvZcZm6A_-4" value="panel" style="rounded=1;whiteSpace=wrap;html=1;fontSize=12;strokeWidth=4;fillColor=#b1ddf0;align=center;strokeColor=#10739e;" vertex="1" parent="1">
          <mxGeometry x="720" y="250" width="70" height="40" as="geometry" />
        </mxCell>
        <mxCell id="ODlGdyG89-AIhttS8kC1-46" value="Image view" style="rounded=1;whiteSpace=wrap;html=1;fontSize=12;strokeWidth=4;fillColor=#b1ddf0;align=center;strokeColor=#10739e;" parent="1" vertex="1">
          <mxGeometry x="720" y="170" width="70" height="40" as="geometry" />
        </mxCell>
        <mxCell id="nWGRgr_J0W2QvZcZm6A_-5" value="archive manager" style="rounded=1;whiteSpace=wrap;html=1;fontSize=12;strokeWidth=4;fillColor=#b1ddf0;align=center;strokeColor=#10739e;" vertex="1" parent="1">
          <mxGeometry x="795" y="250" width="70" height="40" as="geometry" />
        </mxCell>
        <mxCell id="nWGRgr_J0W2QvZcZm6A_-6" value="&lt;b&gt;&lt;font style=&quot;font-size: 14px&quot;&gt;Core composition&lt;/font&gt;&lt;/b&gt;" style="text;html=1;resizable=0;autosize=1;align=center;verticalAlign=middle;points=[];fillColor=none;strokeColor=none;rounded=0;rotation=0;" vertex="1" parent="1">
          <mxGeometry x="675" y="220" width="130" height="20" as="geometry" />
        </mxCell>
        <mxCell id="nWGRgr_J0W2QvZcZm6A_-28" value="" style="rounded=1;whiteSpace=wrap;html=1;fontSize=14;strokeWidth=5;perimeterSpacing=0;fillColor=#b1ddf0;strokeColor=#10739e;" vertex="1" parent="1">
          <mxGeometry x="260" y="169" width="150" height="50" as="geometry" />
        </mxCell>
        <mxCell id="nWGRgr_J0W2QvZcZm6A_-40" value="&lt;b&gt;clock&lt;/b&gt;" style="rounded=1;whiteSpace=wrap;html=1;fontSize=12;strokeWidth=4;fillColor=#f0a30a;align=center;strokeColor=#BD7000;fontColor=#000000;" vertex="1" parent="1">
          <mxGeometry x="336" y="222" width="75" height="48" as="geometry" />
        </mxCell>
        <mxCell id="nWGRgr_J0W2QvZcZm6A_-41" value="&lt;font style=&quot;font-size: 12px&quot;&gt;&lt;b&gt;&lt;font style=&quot;font-size: 12px&quot;&gt;canlendar&lt;/font&gt;&lt;/b&gt;&lt;/font&gt;" style="rounded=1;whiteSpace=wrap;html=1;fontSize=12;strokeWidth=4;fillColor=#f0a30a;align=center;strokeColor=#BD7000;fontColor=#000000;" vertex="1" parent="1">
          <mxGeometry x="409" y="222" width="70" height="48" as="geometry" />
        </mxCell>
        <mxCell id="nWGRgr_J0W2QvZcZm6A_-42" value="&lt;b&gt;Lbrowser&lt;/b&gt;" style="rounded=1;whiteSpace=wrap;html=1;fontSize=12;strokeWidth=4;fillColor=#d80073;align=center;strokeColor=#A50040;fontColor=#ffffff;" vertex="1" parent="1">
          <mxGeometry x="480" y="170" width="70" height="50" as="geometry" />
        </mxCell>
        <mxCell id="nWGRgr_J0W2QvZcZm6A_-46" value="&lt;b&gt;wps&lt;/b&gt;" style="rounded=1;whiteSpace=wrap;html=1;fontSize=12;strokeWidth=4;fillColor=#d80073;align=center;strokeColor=#A50040;fontColor=#ffffff;" vertex="1" parent="1">
          <mxGeometry x="480" y="222" width="70" height="48" as="geometry" />
        </mxCell>
        <mxCell id="nWGRgr_J0W2QvZcZm6A_-47" value="&lt;b&gt;wechat&lt;/b&gt;" style="rounded=1;whiteSpace=wrap;html=1;fontSize=12;strokeWidth=4;fillColor=#d80073;align=center;strokeColor=#A50040;fontColor=#ffffff;" vertex="1" parent="1">
          <mxGeometry x="550" y="170" width="70" height="50" as="geometry" />
        </mxCell>
        <mxCell id="nWGRgr_J0W2QvZcZm6A_-49" value="&lt;b&gt;thunderbid&lt;/b&gt;" style="rounded=1;whiteSpace=wrap;html=1;fontSize=12;strokeWidth=4;fillColor=#d80073;align=center;strokeColor=#A50040;fontColor=#ffffff;" vertex="1" parent="1">
          <mxGeometry x="550" y="222" width="70" height="48" as="geometry" />
        </mxCell>
        <mxCell id="ODlGdyG89-AIhttS8kC1-47" value="&lt;font style=&quot;font-size: 12px&quot;&gt;&lt;b&gt;&lt;font style=&quot;font-size: 12px&quot;&gt;screenshot&lt;/font&gt;&lt;/b&gt;&lt;/font&gt;" style="rounded=1;whiteSpace=wrap;html=1;fontSize=12;strokeWidth=4;fillColor=#f0a30a;align=center;strokeColor=#BD7000;fontColor=#000000;" parent="1" vertex="1">
          <mxGeometry x="257" y="222" width="75" height="48" as="geometry" />
        </mxCell>
        <mxCell id="nWGRgr_J0W2QvZcZm6A_-50" value="" style="ellipse;whiteSpace=wrap;html=1;fontSize=22;fontColor=#000000;strokeWidth=2;direction=south;" vertex="1" parent="1">
          <mxGeometry x="260" y="170" width="30" height="50" as="geometry" />
        </mxCell>
        <mxCell id="nWGRgr_J0W2QvZcZm6A_-51" value="" style="ellipse;whiteSpace=wrap;html=1;fontSize=22;fontColor=#000000;strokeWidth=2;direction=south;" vertex="1" parent="1">
          <mxGeometry x="290" y="170" width="30" height="50" as="geometry" />
        </mxCell>
        <mxCell id="nWGRgr_J0W2QvZcZm6A_-52" value="" style="ellipse;whiteSpace=wrap;html=1;fontSize=22;fontColor=#000000;strokeWidth=2;direction=south;" vertex="1" parent="1">
          <mxGeometry x="320" y="169" width="30" height="50" as="geometry" />
        </mxCell>
        <mxCell id="nWGRgr_J0W2QvZcZm6A_-53" value="" style="ellipse;whiteSpace=wrap;html=1;fontSize=22;fontColor=#000000;strokeWidth=2;direction=south;" vertex="1" parent="1">
          <mxGeometry x="350" y="170" width="30" height="50" as="geometry" />
        </mxCell>
        <mxCell id="nWGRgr_J0W2QvZcZm6A_-54" value="" style="ellipse;whiteSpace=wrap;html=1;fontSize=22;fontColor=#000000;strokeWidth=2;direction=south;" vertex="1" parent="1">
          <mxGeometry x="379" y="169" width="30" height="50" as="geometry" />
        </mxCell>
        <mxCell id="nWGRgr_J0W2QvZcZm6A_-39" value="&lt;font style=&quot;font-size: 16px&quot;&gt;&lt;b&gt;Desktop widgets&lt;/b&gt;&lt;/font&gt;" style="text;html=1;resizable=0;autosize=1;align=center;verticalAlign=middle;points=[];fillColor=none;strokeColor=none;rounded=0;fontSize=14;" vertex="1" parent="1">
          <mxGeometry x="260" y="185" width="140" height="20" as="geometry" />
        </mxCell>
      </root>
    </mxGraphModel>
  </diagram>
</mxfile>
